<svg width="62" height="56" viewBox="0 0 62 56" fill="none" xmlns="http://www.w3.org/2000/svg">
<path d="M31 4.66667C25.8906 4.66667 20.896 6.03514 16.6477 8.59904C12.3995 11.1629 9.08835 14.8071 7.13308 19.0707C5.17782 23.3343 4.66623 28.0259 5.66302 32.5521C6.6598 37.0783 9.12019 41.2359 12.733 44.4992C16.3459 47.7624 20.949 49.9847 25.9601 50.885C30.9713 51.7853 36.1655 51.3232 40.886 49.5572C45.6064 47.7911 49.641 44.8005 52.4796 40.9633C55.3182 37.1262 56.8333 32.6149 56.8333 28C56.8333 24.9358 56.1651 21.9017 54.8669 19.0707C53.5686 16.2398 51.6657 13.6675 49.2669 11.5008C46.868 9.33414 44.0202 7.61542 40.886 6.44281C37.7517 5.2702 34.3925 4.66667 31 4.66667ZM41.3333 30.3333H33.5833V37.3333C33.5833 37.9522 33.3111 38.5457 32.8267 38.9833C32.3422 39.4208 31.6851 39.6667 31 39.6667C30.3148 39.6667 29.6577 39.4208 29.1733 38.9833C28.6888 38.5457 28.4166 37.9522 28.4166 37.3333V30.3333H20.6666C19.9815 30.3333 19.3244 30.0875 18.8399 29.6499C18.3555 29.2123 18.0833 28.6188 18.0833 28C18.0833 27.3812 18.3555 26.7877 18.8399 26.3501C19.3244 25.9125 19.9815 25.6667 20.6666 25.6667H28.4166V18.6667C28.4166 18.0478 28.6888 17.4543 29.1733 17.0168C29.6577 16.5792 30.3148 16.3333 31 16.3333C31.6851 16.3333 32.3422 16.5792 32.8267 17.0168C33.3111 17.4543 33.5833 18.0478 33.5833 18.6667V25.6667H41.3333C42.0184 25.6667 42.6755 25.9125 43.16 26.3501C43.6445 26.7877 43.9166 27.3812 43.9166 28C43.9166 28.6188 43.6445 29.2123 43.16 29.6499C42.6755 30.0875 42.0184 30.3333 41.3333 30.3333Z" fill="#1ED345"/>
</svg>
